<svg width="44" height="14" viewBox="0 0 44 14" fill="none" xmlns="http://www.w3.org/2000/svg">
<path d="M6.89062 7.75977H8.59961C8.54492 8.41146 8.36263 8.99251 8.05273 9.50293C7.74284 10.0088 7.30762 10.4076 6.74707 10.6992C6.18652 10.9909 5.50521 11.1367 4.70312 11.1367C4.08789 11.1367 3.53418 11.0273 3.04199 10.8086C2.5498 10.5853 2.12826 10.2708 1.77734 9.86523C1.42643 9.45508 1.15755 8.96061 0.970703 8.38184C0.788411 7.80306 0.697266 7.15592 0.697266 6.44043V5.61328C0.697266 4.89779 0.79069 4.25065 0.977539 3.67188C1.16895 3.0931 1.44238 2.59863 1.79785 2.18848C2.15332 1.77376 2.57943 1.45703 3.07617 1.23828C3.57747 1.01953 4.1403 0.910156 4.76465 0.910156C5.55762 0.910156 6.22754 1.05599 6.77441 1.34766C7.32129 1.63932 7.74512 2.04264 8.0459 2.55762C8.35124 3.07259 8.53809 3.66276 8.60645 4.32812H6.89746C6.85189 3.89974 6.75163 3.53288 6.59668 3.22754C6.44629 2.9222 6.22298 2.68978 5.92676 2.53027C5.63053 2.36621 5.24316 2.28418 4.76465 2.28418C4.37272 2.28418 4.03092 2.3571 3.73926 2.50293C3.44759 2.64876 3.20378 2.86296 3.00781 3.14551C2.81185 3.42806 2.66374 3.77669 2.56348 4.19141C2.46777 4.60156 2.41992 5.07096 2.41992 5.59961V6.44043C2.41992 6.94173 2.46322 7.39746 2.5498 7.80762C2.64095 8.21322 2.77767 8.56185 2.95996 8.85352C3.14681 9.14518 3.38379 9.37077 3.6709 9.53027C3.95801 9.68978 4.30208 9.76953 4.70312 9.76953C5.19076 9.76953 5.58496 9.69206 5.88574 9.53711C6.19108 9.38216 6.42122 9.15658 6.57617 8.86035C6.73568 8.55957 6.84049 8.19271 6.89062 7.75977ZM13.7058 3.60352V11H12.0515V3.60352H13.7058ZM16.1325 3.60352V4.90234H9.66574V3.60352H16.1325ZM19.7416 10.1934L21.7514 3.60352H23.5151L20.5483 12.1279C20.4799 12.3102 20.3911 12.5085 20.2817 12.7227C20.1723 12.9368 20.0287 13.1396 19.851 13.3311C19.6778 13.527 19.4614 13.6842 19.2016 13.8027C18.9418 13.9258 18.6274 13.9873 18.2582 13.9873C18.1124 13.9873 17.9711 13.9736 17.8344 13.9463C17.7023 13.9235 17.5769 13.8984 17.4584 13.8711L17.4516 12.6133C17.4972 12.6178 17.5519 12.6224 17.6157 12.627C17.684 12.6315 17.7387 12.6338 17.7797 12.6338C18.0532 12.6338 18.281 12.5996 18.4633 12.5312C18.6456 12.4674 18.7937 12.3626 18.9077 12.2168C19.0261 12.071 19.1264 11.875 19.2084 11.6289L19.7416 10.1934ZM18.6069 3.60352L20.3637 9.14062L20.6577 10.877L19.5161 11.1709L16.8295 3.60352H18.6069ZM25.6955 3.60352H27.3429L27.2609 6.20801C27.2381 6.96452 27.1515 7.61393 27.0011 8.15625C26.8507 8.69857 26.6548 9.15658 26.4132 9.53027C26.1717 9.89941 25.8983 10.2025 25.5929 10.4395C25.2921 10.6764 24.9754 10.8633 24.6427 11H24.1574V9.70117L24.3898 9.6875C24.5858 9.47786 24.7544 9.26823 24.8957 9.05859C25.0415 8.8444 25.1645 8.6097 25.2648 8.35449C25.3651 8.09473 25.4425 7.79167 25.4972 7.44531C25.5565 7.09896 25.5952 6.68652 25.6134 6.20801L25.6955 3.60352ZM26.133 3.60352H30.8224V11H29.1818V4.99805H26.133V3.60352ZM23.7814 9.6875H31.8341V13.2012H30.1867V11H25.4494V13.2012H23.7746L23.7814 9.6875ZM35.0536 3.60352V11H33.3993V3.60352H35.0536ZM33.2899 1.66211C33.2899 1.41146 33.372 1.2041 33.536 1.04004C33.7046 0.871419 33.9371 0.787109 34.2333 0.787109C34.5249 0.787109 34.7551 0.871419 34.9237 1.04004C35.0923 1.2041 35.1766 1.41146 35.1766 1.66211C35.1766 1.9082 35.0923 2.11328 34.9237 2.27734C34.7551 2.44141 34.5249 2.52344 34.2333 2.52344C33.9371 2.52344 33.7046 2.44141 33.536 2.27734C33.372 2.11328 33.2899 1.9082 33.2899 1.66211ZM38.6969 7.38379H40.4059L38.3072 11H36.6051L38.6969 7.38379ZM39.9 3.60352H43.0719V11H41.4313V4.90234H39.9C39.5901 4.90234 39.3349 4.95703 39.1344 5.06641C38.9339 5.17122 38.7857 5.31022 38.69 5.4834C38.5943 5.65202 38.5465 5.8252 38.5465 6.00293C38.5465 6.18066 38.5898 6.35156 38.6764 6.51562C38.7675 6.67969 38.9065 6.81413 39.0934 6.91895C39.2848 7.02376 39.524 7.07617 39.8111 7.07617H41.985V8.2793H39.8111C39.3554 8.2793 38.9475 8.22233 38.5875 8.1084C38.2275 7.98991 37.9221 7.82812 37.6715 7.62305C37.4208 7.41341 37.2294 7.1696 37.0973 6.8916C36.9651 6.60905 36.899 6.30143 36.899 5.96875C36.899 5.62695 36.9674 5.3125 37.1041 5.02539C37.2408 4.73828 37.4368 4.48763 37.692 4.27344C37.9518 4.05924 38.2662 3.89518 38.6354 3.78125C39.0091 3.66276 39.4306 3.60352 39.9 3.60352Z" fill="#2196F3"/>
</svg>
